<mxfile host="app.diagrams.net" modified="2021-04-03T23:25:23.473Z" agent="5.0 (X11)" etag="HjHQG2VeRzuU-LUwpxqV" compressed="false" version="14.5.3" type="device">
  <diagram id="4KqQq7dFNOag3WCimcQZ" name="Page-1">
    <mxGraphModel dx="2543" dy="1586" grid="1" gridSize="10" guides="1" tooltips="1" connect="1" arrows="1" fold="1" page="1" pageScale="1" pageWidth="1100" pageHeight="850" math="0" shadow="0">
      <root>
        <mxCell id="0" />
        <mxCell id="FHEGJPX1-U8LTmI2p0CC-68" value="Walls" style="locked=1;" parent="0" />
        <mxCell id="FHEGJPX1-U8LTmI2p0CC-1" value="" style="rounded=0;whiteSpace=wrap;html=1;fillColor=none;" vertex="1" parent="FHEGJPX1-U8LTmI2p0CC-68">
          <mxGeometry x="280" y="120" width="440" height="320" as="geometry" />
        </mxCell>
        <mxCell id="FHEGJPX1-U8LTmI2p0CC-5" value="" style="rounded=0;whiteSpace=wrap;html=1;fillColor=none;" vertex="1" parent="FHEGJPX1-U8LTmI2p0CC-68">
          <mxGeometry x="280" y="440" width="160" height="240" as="geometry" />
        </mxCell>
        <mxCell id="FHEGJPX1-U8LTmI2p0CC-2" value="" style="rounded=0;whiteSpace=wrap;html=1;fillColor=none;" vertex="1" parent="FHEGJPX1-U8LTmI2p0CC-68">
          <mxGeometry x="560" y="440" width="160" height="240" as="geometry" />
        </mxCell>
        <mxCell id="FHEGJPX1-U8LTmI2p0CC-36" value="" style="rounded=0;whiteSpace=wrap;html=1;fillColor=none;" vertex="1" parent="FHEGJPX1-U8LTmI2p0CC-68">
          <mxGeometry x="720" y="120" width="80" height="80" as="geometry" />
        </mxCell>
        <mxCell id="1" value="Rooms" style="locked=1;" parent="0" />
        <mxCell id="FHEGJPX1-U8LTmI2p0CC-9" value="" style="rounded=0;whiteSpace=wrap;html=1;fillColor=none;" vertex="1" parent="1">
          <mxGeometry x="280" y="320" width="160" height="120" as="geometry" />
        </mxCell>
        <mxCell id="FHEGJPX1-U8LTmI2p0CC-10" value="" style="rounded=0;whiteSpace=wrap;html=1;fillColor=none;" vertex="1" parent="1">
          <mxGeometry x="560" y="320" width="160" height="120" as="geometry" />
        </mxCell>
        <mxCell id="FHEGJPX1-U8LTmI2p0CC-15" value="" style="group" vertex="1" connectable="0" parent="1">
          <mxGeometry x="440" y="200" width="80" height="40" as="geometry" />
        </mxCell>
        <mxCell id="FHEGJPX1-U8LTmI2p0CC-16" value="" style="endArrow=none;html=1;" edge="1" parent="FHEGJPX1-U8LTmI2p0CC-15">
          <mxGeometry width="50" height="50" relative="1" as="geometry">
            <mxPoint y="40" as="sourcePoint" />
            <mxPoint as="targetPoint" />
          </mxGeometry>
        </mxCell>
        <mxCell id="FHEGJPX1-U8LTmI2p0CC-17" value="" style="endArrow=none;html=1;" edge="1" parent="FHEGJPX1-U8LTmI2p0CC-15">
          <mxGeometry width="50" height="50" relative="1" as="geometry">
            <mxPoint x="80" y="40" as="sourcePoint" />
            <mxPoint x="80" as="targetPoint" />
          </mxGeometry>
        </mxCell>
        <mxCell id="FHEGJPX1-U8LTmI2p0CC-18" value="" style="endArrow=none;html=1;" edge="1" parent="FHEGJPX1-U8LTmI2p0CC-15">
          <mxGeometry width="50" height="50" relative="1" as="geometry">
            <mxPoint x="80" as="sourcePoint" />
            <mxPoint as="targetPoint" />
          </mxGeometry>
        </mxCell>
        <mxCell id="FHEGJPX1-U8LTmI2p0CC-19" value="" style="group" vertex="1" connectable="0" parent="1">
          <mxGeometry x="520" y="200" width="80" height="40" as="geometry" />
        </mxCell>
        <mxCell id="FHEGJPX1-U8LTmI2p0CC-20" value="" style="endArrow=none;html=1;" edge="1" parent="FHEGJPX1-U8LTmI2p0CC-19">
          <mxGeometry width="50" height="50" relative="1" as="geometry">
            <mxPoint y="40" as="sourcePoint" />
            <mxPoint as="targetPoint" />
          </mxGeometry>
        </mxCell>
        <mxCell id="FHEGJPX1-U8LTmI2p0CC-21" value="" style="endArrow=none;html=1;" edge="1" parent="FHEGJPX1-U8LTmI2p0CC-19">
          <mxGeometry width="50" height="50" relative="1" as="geometry">
            <mxPoint x="80" y="40" as="sourcePoint" />
            <mxPoint x="80" as="targetPoint" />
          </mxGeometry>
        </mxCell>
        <mxCell id="FHEGJPX1-U8LTmI2p0CC-22" value="" style="endArrow=none;html=1;" edge="1" parent="FHEGJPX1-U8LTmI2p0CC-19">
          <mxGeometry width="50" height="50" relative="1" as="geometry">
            <mxPoint x="80" as="sourcePoint" />
            <mxPoint as="targetPoint" />
          </mxGeometry>
        </mxCell>
        <mxCell id="FHEGJPX1-U8LTmI2p0CC-23" value="" style="group;rotation=-180;" vertex="1" connectable="0" parent="1">
          <mxGeometry x="440" y="160" width="80" height="40" as="geometry" />
        </mxCell>
        <mxCell id="FHEGJPX1-U8LTmI2p0CC-24" value="" style="endArrow=none;html=1;" edge="1" parent="FHEGJPX1-U8LTmI2p0CC-23">
          <mxGeometry width="50" height="50" relative="1" as="geometry">
            <mxPoint x="80" as="sourcePoint" />
            <mxPoint x="80" y="40" as="targetPoint" />
          </mxGeometry>
        </mxCell>
        <mxCell id="FHEGJPX1-U8LTmI2p0CC-25" value="" style="endArrow=none;html=1;" edge="1" parent="FHEGJPX1-U8LTmI2p0CC-23">
          <mxGeometry width="50" height="50" relative="1" as="geometry">
            <mxPoint as="sourcePoint" />
            <mxPoint y="40" as="targetPoint" />
          </mxGeometry>
        </mxCell>
        <mxCell id="FHEGJPX1-U8LTmI2p0CC-26" value="" style="endArrow=none;html=1;" edge="1" parent="FHEGJPX1-U8LTmI2p0CC-23">
          <mxGeometry width="50" height="50" relative="1" as="geometry">
            <mxPoint y="40" as="sourcePoint" />
            <mxPoint x="80" y="40" as="targetPoint" />
          </mxGeometry>
        </mxCell>
        <mxCell id="FHEGJPX1-U8LTmI2p0CC-31" value="" style="group;rotation=-180;" vertex="1" connectable="0" parent="1">
          <mxGeometry x="520" y="160" width="80" height="40" as="geometry" />
        </mxCell>
        <mxCell id="FHEGJPX1-U8LTmI2p0CC-32" value="" style="endArrow=none;html=1;" edge="1" parent="FHEGJPX1-U8LTmI2p0CC-31">
          <mxGeometry width="50" height="50" relative="1" as="geometry">
            <mxPoint x="80" as="sourcePoint" />
            <mxPoint x="80" y="40" as="targetPoint" />
          </mxGeometry>
        </mxCell>
        <mxCell id="FHEGJPX1-U8LTmI2p0CC-33" value="" style="endArrow=none;html=1;" edge="1" parent="FHEGJPX1-U8LTmI2p0CC-31">
          <mxGeometry width="50" height="50" relative="1" as="geometry">
            <mxPoint as="sourcePoint" />
            <mxPoint y="40" as="targetPoint" />
          </mxGeometry>
        </mxCell>
        <mxCell id="FHEGJPX1-U8LTmI2p0CC-34" value="" style="endArrow=none;html=1;" edge="1" parent="FHEGJPX1-U8LTmI2p0CC-31">
          <mxGeometry width="50" height="50" relative="1" as="geometry">
            <mxPoint y="40" as="sourcePoint" />
            <mxPoint x="80" y="40" as="targetPoint" />
          </mxGeometry>
        </mxCell>
        <mxCell id="FHEGJPX1-U8LTmI2p0CC-35" value="" style="rounded=0;whiteSpace=wrap;html=1;fillColor=none;" vertex="1" parent="1">
          <mxGeometry x="280" y="120" width="80" height="120" as="geometry" />
        </mxCell>
        <mxCell id="FHEGJPX1-U8LTmI2p0CC-45" value="" style="group;rotation=-90;" vertex="1" connectable="0" parent="1">
          <mxGeometry x="620" y="500" width="80" height="40" as="geometry" />
        </mxCell>
        <mxCell id="FHEGJPX1-U8LTmI2p0CC-46" value="" style="endArrow=none;html=1;" edge="1" parent="FHEGJPX1-U8LTmI2p0CC-45">
          <mxGeometry width="50" height="50" relative="1" as="geometry">
            <mxPoint x="60" y="60" as="sourcePoint" />
            <mxPoint x="20" y="60" as="targetPoint" />
          </mxGeometry>
        </mxCell>
        <mxCell id="FHEGJPX1-U8LTmI2p0CC-47" value="" style="endArrow=none;html=1;" edge="1" parent="FHEGJPX1-U8LTmI2p0CC-45">
          <mxGeometry width="50" height="50" relative="1" as="geometry">
            <mxPoint x="60" y="-20" as="sourcePoint" />
            <mxPoint x="20" y="-20" as="targetPoint" />
          </mxGeometry>
        </mxCell>
        <mxCell id="FHEGJPX1-U8LTmI2p0CC-48" value="" style="endArrow=none;html=1;" edge="1" parent="FHEGJPX1-U8LTmI2p0CC-45">
          <mxGeometry width="50" height="50" relative="1" as="geometry">
            <mxPoint x="20" y="-20" as="sourcePoint" />
            <mxPoint x="20" y="60" as="targetPoint" />
          </mxGeometry>
        </mxCell>
        <mxCell id="FHEGJPX1-U8LTmI2p0CC-49" value="" style="group;rotation=90;" vertex="1" connectable="0" parent="1">
          <mxGeometry x="580" y="500" width="80" height="40" as="geometry" />
        </mxCell>
        <mxCell id="FHEGJPX1-U8LTmI2p0CC-50" value="" style="endArrow=none;html=1;" edge="1" parent="FHEGJPX1-U8LTmI2p0CC-49">
          <mxGeometry width="50" height="50" relative="1" as="geometry">
            <mxPoint x="20" y="-20" as="sourcePoint" />
            <mxPoint x="60" y="-20" as="targetPoint" />
          </mxGeometry>
        </mxCell>
        <mxCell id="FHEGJPX1-U8LTmI2p0CC-51" value="" style="endArrow=none;html=1;" edge="1" parent="FHEGJPX1-U8LTmI2p0CC-49">
          <mxGeometry width="50" height="50" relative="1" as="geometry">
            <mxPoint x="20" y="60" as="sourcePoint" />
            <mxPoint x="60" y="60" as="targetPoint" />
          </mxGeometry>
        </mxCell>
        <mxCell id="FHEGJPX1-U8LTmI2p0CC-52" value="" style="endArrow=none;html=1;" edge="1" parent="FHEGJPX1-U8LTmI2p0CC-49">
          <mxGeometry width="50" height="50" relative="1" as="geometry">
            <mxPoint x="60" y="60" as="sourcePoint" />
            <mxPoint x="60" y="-20" as="targetPoint" />
          </mxGeometry>
        </mxCell>
        <mxCell id="FHEGJPX1-U8LTmI2p0CC-53" value="" style="group;rotation=-90;" vertex="1" connectable="0" parent="1">
          <mxGeometry x="620" y="580" width="80" height="40" as="geometry" />
        </mxCell>
        <mxCell id="FHEGJPX1-U8LTmI2p0CC-54" value="" style="endArrow=none;html=1;" edge="1" parent="FHEGJPX1-U8LTmI2p0CC-53">
          <mxGeometry width="50" height="50" relative="1" as="geometry">
            <mxPoint x="60" y="60" as="sourcePoint" />
            <mxPoint x="20" y="60" as="targetPoint" />
          </mxGeometry>
        </mxCell>
        <mxCell id="FHEGJPX1-U8LTmI2p0CC-55" value="" style="endArrow=none;html=1;" edge="1" parent="FHEGJPX1-U8LTmI2p0CC-53">
          <mxGeometry width="50" height="50" relative="1" as="geometry">
            <mxPoint x="60" y="-20" as="sourcePoint" />
            <mxPoint x="20" y="-20" as="targetPoint" />
          </mxGeometry>
        </mxCell>
        <mxCell id="FHEGJPX1-U8LTmI2p0CC-56" value="" style="endArrow=none;html=1;" edge="1" parent="FHEGJPX1-U8LTmI2p0CC-53">
          <mxGeometry width="50" height="50" relative="1" as="geometry">
            <mxPoint x="20" y="-20" as="sourcePoint" />
            <mxPoint x="20" y="60" as="targetPoint" />
          </mxGeometry>
        </mxCell>
        <mxCell id="FHEGJPX1-U8LTmI2p0CC-57" value="" style="group;rotation=90;" vertex="1" connectable="0" parent="1">
          <mxGeometry x="580" y="580" width="80" height="40" as="geometry" />
        </mxCell>
        <mxCell id="FHEGJPX1-U8LTmI2p0CC-58" value="" style="endArrow=none;html=1;" edge="1" parent="FHEGJPX1-U8LTmI2p0CC-57">
          <mxGeometry width="50" height="50" relative="1" as="geometry">
            <mxPoint x="20" y="-20" as="sourcePoint" />
            <mxPoint x="60" y="-20" as="targetPoint" />
          </mxGeometry>
        </mxCell>
        <mxCell id="FHEGJPX1-U8LTmI2p0CC-59" value="" style="endArrow=none;html=1;" edge="1" parent="FHEGJPX1-U8LTmI2p0CC-57">
          <mxGeometry width="50" height="50" relative="1" as="geometry">
            <mxPoint x="20" y="60" as="sourcePoint" />
            <mxPoint x="60" y="60" as="targetPoint" />
          </mxGeometry>
        </mxCell>
        <mxCell id="FHEGJPX1-U8LTmI2p0CC-60" value="" style="endArrow=none;html=1;" edge="1" parent="FHEGJPX1-U8LTmI2p0CC-57">
          <mxGeometry width="50" height="50" relative="1" as="geometry">
            <mxPoint x="60" y="60" as="sourcePoint" />
            <mxPoint x="60" y="-20" as="targetPoint" />
          </mxGeometry>
        </mxCell>
        <mxCell id="FHEGJPX1-U8LTmI2p0CC-61" value="" style="rounded=0;whiteSpace=wrap;html=1;fillColor=none;" vertex="1" parent="1">
          <mxGeometry x="720" y="440" width="80" height="240" as="geometry" />
        </mxCell>
        <mxCell id="FHEGJPX1-U8LTmI2p0CC-69" value="Points" style="" parent="0" />
        <mxCell id="FHEGJPX1-U8LTmI2p0CC-67" value="" style="ellipse;whiteSpace=wrap;html=1;aspect=fixed;fillColor=#000000;verticalAlign=top;labelPosition=center;verticalLabelPosition=bottom;align=center;" vertex="1" parent="FHEGJPX1-U8LTmI2p0CC-69">
          <mxGeometry x="470" y="170" width="20" height="20" as="geometry" />
        </mxCell>
        <mxCell id="FHEGJPX1-U8LTmI2p0CC-66" value="" style="ellipse;whiteSpace=wrap;html=1;aspect=fixed;fillColor=#000000;verticalAlign=top;labelPosition=center;verticalLabelPosition=bottom;align=center;" vertex="1" parent="FHEGJPX1-U8LTmI2p0CC-69">
          <mxGeometry x="550" y="170" width="20" height="20" as="geometry" />
        </mxCell>
        <mxCell id="FHEGJPX1-U8LTmI2p0CC-93" value="" style="edgeStyle=orthogonalEdgeStyle;rounded=0;orthogonalLoop=1;jettySize=auto;html=1;startArrow=none;startFill=0;endArrow=none;endFill=0;fontColor=#000000;" edge="1" parent="FHEGJPX1-U8LTmI2p0CC-69" source="FHEGJPX1-U8LTmI2p0CC-65" target="FHEGJPX1-U8LTmI2p0CC-66">
          <mxGeometry relative="1" as="geometry">
            <mxPoint x="580" y="190" as="targetPoint" />
          </mxGeometry>
        </mxCell>
        <mxCell id="FHEGJPX1-U8LTmI2p0CC-94" value="" style="edgeStyle=orthogonalEdgeStyle;rounded=0;orthogonalLoop=1;jettySize=auto;html=1;startArrow=none;startFill=0;endArrow=none;endFill=0;fontColor=#000000;" edge="1" parent="FHEGJPX1-U8LTmI2p0CC-69" source="FHEGJPX1-U8LTmI2p0CC-65" target="FHEGJPX1-U8LTmI2p0CC-70">
          <mxGeometry relative="1" as="geometry" />
        </mxCell>
        <mxCell id="FHEGJPX1-U8LTmI2p0CC-65" value="" style="ellipse;whiteSpace=wrap;html=1;aspect=fixed;fillColor=#000000;verticalAlign=top;labelPosition=center;verticalLabelPosition=bottom;align=center;" vertex="1" parent="FHEGJPX1-U8LTmI2p0CC-69">
          <mxGeometry x="550" y="130" width="20" height="20" as="geometry" />
        </mxCell>
        <mxCell id="FHEGJPX1-U8LTmI2p0CC-92" style="edgeStyle=orthogonalEdgeStyle;rounded=0;orthogonalLoop=1;jettySize=auto;html=1;startArrow=none;startFill=0;endArrow=none;endFill=0;fontColor=#000000;" edge="1" parent="FHEGJPX1-U8LTmI2p0CC-69" source="FHEGJPX1-U8LTmI2p0CC-64" target="FHEGJPX1-U8LTmI2p0CC-65">
          <mxGeometry relative="1" as="geometry" />
        </mxCell>
        <mxCell id="FHEGJPX1-U8LTmI2p0CC-64" value="" style="ellipse;whiteSpace=wrap;html=1;aspect=fixed;fillColor=#000000;verticalAlign=top;labelPosition=center;verticalLabelPosition=bottom;align=center;" vertex="1" parent="FHEGJPX1-U8LTmI2p0CC-69">
          <mxGeometry x="670" y="150" width="20" height="20" as="geometry" />
        </mxCell>
        <mxCell id="FHEGJPX1-U8LTmI2p0CC-91" value="" style="edgeStyle=orthogonalEdgeStyle;rounded=0;orthogonalLoop=1;jettySize=auto;html=1;startArrow=none;startFill=0;endArrow=none;endFill=0;fontColor=#000000;" edge="1" parent="FHEGJPX1-U8LTmI2p0CC-69" source="FHEGJPX1-U8LTmI2p0CC-63" target="FHEGJPX1-U8LTmI2p0CC-64">
          <mxGeometry relative="1" as="geometry" />
        </mxCell>
        <mxCell id="FHEGJPX1-U8LTmI2p0CC-63" value="" style="ellipse;whiteSpace=wrap;html=1;aspect=fixed;fillColor=#000000;verticalAlign=top;labelPosition=center;verticalLabelPosition=bottom;align=center;" vertex="1" parent="FHEGJPX1-U8LTmI2p0CC-69">
          <mxGeometry x="750" y="150" width="20" height="20" as="geometry" />
        </mxCell>
        <mxCell id="FHEGJPX1-U8LTmI2p0CC-90" value="" style="edgeStyle=orthogonalEdgeStyle;rounded=0;orthogonalLoop=1;jettySize=auto;html=1;fontColor=#000000;startArrow=none;startFill=0;endArrow=none;endFill=0;" edge="1" parent="FHEGJPX1-U8LTmI2p0CC-69" source="FHEGJPX1-U8LTmI2p0CC-62" target="FHEGJPX1-U8LTmI2p0CC-63">
          <mxGeometry relative="1" as="geometry" />
        </mxCell>
        <mxCell id="FHEGJPX1-U8LTmI2p0CC-62" value="" style="ellipse;whiteSpace=wrap;html=1;aspect=fixed;fillColor=#000000;verticalAlign=top;labelPosition=center;verticalLabelPosition=bottom;align=center;" vertex="1" parent="FHEGJPX1-U8LTmI2p0CC-69">
          <mxGeometry x="750" y="70" width="20" height="20" as="geometry" />
        </mxCell>
        <mxCell id="FHEGJPX1-U8LTmI2p0CC-95" style="edgeStyle=orthogonalEdgeStyle;rounded=0;orthogonalLoop=1;jettySize=auto;html=1;startArrow=none;startFill=0;endArrow=none;endFill=0;fontColor=#000000;" edge="1" parent="FHEGJPX1-U8LTmI2p0CC-69" source="FHEGJPX1-U8LTmI2p0CC-70" target="FHEGJPX1-U8LTmI2p0CC-67">
          <mxGeometry relative="1" as="geometry" />
        </mxCell>
        <mxCell id="FHEGJPX1-U8LTmI2p0CC-96" style="edgeStyle=orthogonalEdgeStyle;rounded=0;orthogonalLoop=1;jettySize=auto;html=1;startArrow=none;startFill=0;endArrow=none;endFill=0;fontColor=#000000;" edge="1" parent="FHEGJPX1-U8LTmI2p0CC-69" source="FHEGJPX1-U8LTmI2p0CC-70" target="FHEGJPX1-U8LTmI2p0CC-71">
          <mxGeometry relative="1" as="geometry" />
        </mxCell>
        <mxCell id="FHEGJPX1-U8LTmI2p0CC-70" value="" style="ellipse;whiteSpace=wrap;html=1;aspect=fixed;fillColor=#000000;verticalAlign=top;labelPosition=center;verticalLabelPosition=bottom;align=center;" vertex="1" parent="FHEGJPX1-U8LTmI2p0CC-69">
          <mxGeometry x="470" y="130" width="20" height="20" as="geometry" />
        </mxCell>
        <mxCell id="FHEGJPX1-U8LTmI2p0CC-97" style="edgeStyle=orthogonalEdgeStyle;rounded=0;orthogonalLoop=1;jettySize=auto;html=1;startArrow=none;startFill=0;endArrow=none;endFill=0;fontColor=#000000;" edge="1" parent="FHEGJPX1-U8LTmI2p0CC-69" source="FHEGJPX1-U8LTmI2p0CC-71" target="FHEGJPX1-U8LTmI2p0CC-77">
          <mxGeometry relative="1" as="geometry" />
        </mxCell>
        <mxCell id="FHEGJPX1-U8LTmI2p0CC-121" style="edgeStyle=orthogonalEdgeStyle;rounded=0;orthogonalLoop=1;jettySize=auto;html=1;startArrow=none;startFill=0;endArrow=none;endFill=0;fontColor=#000000;" edge="1" parent="FHEGJPX1-U8LTmI2p0CC-69" source="FHEGJPX1-U8LTmI2p0CC-71" target="FHEGJPX1-U8LTmI2p0CC-120">
          <mxGeometry relative="1" as="geometry" />
        </mxCell>
        <mxCell id="FHEGJPX1-U8LTmI2p0CC-71" value="" style="ellipse;whiteSpace=wrap;html=1;aspect=fixed;fillColor=#000000;verticalAlign=top;labelPosition=center;verticalLabelPosition=bottom;align=center;" vertex="1" parent="FHEGJPX1-U8LTmI2p0CC-69">
          <mxGeometry x="390" y="210" width="20" height="20" as="geometry" />
        </mxCell>
        <mxCell id="FHEGJPX1-U8LTmI2p0CC-72" value="" style="ellipse;whiteSpace=wrap;html=1;aspect=fixed;fillColor=#000000;verticalAlign=top;labelPosition=center;verticalLabelPosition=bottom;align=center;" vertex="1" parent="FHEGJPX1-U8LTmI2p0CC-69">
          <mxGeometry x="350" y="370" width="20" height="20" as="geometry" />
        </mxCell>
        <mxCell id="FHEGJPX1-U8LTmI2p0CC-73" value="" style="ellipse;whiteSpace=wrap;html=1;aspect=fixed;fillColor=#000000;verticalAlign=top;labelPosition=center;verticalLabelPosition=bottom;align=center;" vertex="1" parent="FHEGJPX1-U8LTmI2p0CC-69">
          <mxGeometry x="630" y="370" width="20" height="20" as="geometry" />
        </mxCell>
        <mxCell id="FHEGJPX1-U8LTmI2p0CC-74" value="" style="ellipse;whiteSpace=wrap;html=1;aspect=fixed;fillColor=#000000;verticalAlign=top;labelPosition=center;verticalLabelPosition=bottom;align=center;" vertex="1" parent="FHEGJPX1-U8LTmI2p0CC-69">
          <mxGeometry x="470" y="210" width="20" height="20" as="geometry" />
        </mxCell>
        <mxCell id="FHEGJPX1-U8LTmI2p0CC-75" value="" style="ellipse;whiteSpace=wrap;html=1;aspect=fixed;fillColor=#000000;verticalAlign=top;labelPosition=center;verticalLabelPosition=bottom;align=center;" vertex="1" parent="FHEGJPX1-U8LTmI2p0CC-69">
          <mxGeometry x="550" y="210" width="20" height="20" as="geometry" />
        </mxCell>
        <mxCell id="FHEGJPX1-U8LTmI2p0CC-99" value="" style="edgeStyle=orthogonalEdgeStyle;rounded=0;orthogonalLoop=1;jettySize=auto;html=1;startArrow=none;startFill=0;endArrow=none;endFill=0;fontColor=#000000;" edge="1" parent="FHEGJPX1-U8LTmI2p0CC-69" source="FHEGJPX1-U8LTmI2p0CC-76" target="FHEGJPX1-U8LTmI2p0CC-78">
          <mxGeometry relative="1" as="geometry" />
        </mxCell>
        <mxCell id="FHEGJPX1-U8LTmI2p0CC-101" style="edgeStyle=orthogonalEdgeStyle;rounded=0;orthogonalLoop=1;jettySize=auto;html=1;startArrow=none;startFill=0;endArrow=none;endFill=0;fontColor=#000000;" edge="1" parent="FHEGJPX1-U8LTmI2p0CC-69" source="FHEGJPX1-U8LTmI2p0CC-76" target="FHEGJPX1-U8LTmI2p0CC-74">
          <mxGeometry relative="1" as="geometry" />
        </mxCell>
        <mxCell id="FHEGJPX1-U8LTmI2p0CC-106" style="edgeStyle=orthogonalEdgeStyle;rounded=0;orthogonalLoop=1;jettySize=auto;html=1;startArrow=none;startFill=0;endArrow=none;endFill=0;fontColor=#000000;" edge="1" parent="FHEGJPX1-U8LTmI2p0CC-69" source="FHEGJPX1-U8LTmI2p0CC-76" target="FHEGJPX1-U8LTmI2p0CC-80">
          <mxGeometry relative="1" as="geometry" />
        </mxCell>
        <mxCell id="FHEGJPX1-U8LTmI2p0CC-76" value="" style="ellipse;whiteSpace=wrap;html=1;aspect=fixed;fillColor=#000000;verticalAlign=top;labelPosition=center;verticalLabelPosition=bottom;align=center;" vertex="1" parent="FHEGJPX1-U8LTmI2p0CC-69">
          <mxGeometry x="470" y="270" width="20" height="20" as="geometry" />
        </mxCell>
        <mxCell id="FHEGJPX1-U8LTmI2p0CC-98" value="" style="edgeStyle=orthogonalEdgeStyle;rounded=0;orthogonalLoop=1;jettySize=auto;html=1;startArrow=none;startFill=0;endArrow=none;endFill=0;fontColor=#000000;" edge="1" parent="FHEGJPX1-U8LTmI2p0CC-69" source="FHEGJPX1-U8LTmI2p0CC-77" target="FHEGJPX1-U8LTmI2p0CC-76">
          <mxGeometry relative="1" as="geometry" />
        </mxCell>
        <mxCell id="FHEGJPX1-U8LTmI2p0CC-105" style="edgeStyle=orthogonalEdgeStyle;rounded=0;orthogonalLoop=1;jettySize=auto;html=1;startArrow=none;startFill=0;endArrow=none;endFill=0;fontColor=#000000;" edge="1" parent="FHEGJPX1-U8LTmI2p0CC-69" source="FHEGJPX1-U8LTmI2p0CC-77" target="FHEGJPX1-U8LTmI2p0CC-72">
          <mxGeometry relative="1" as="geometry" />
        </mxCell>
        <mxCell id="FHEGJPX1-U8LTmI2p0CC-77" value="" style="ellipse;whiteSpace=wrap;html=1;aspect=fixed;fillColor=#000000;verticalAlign=top;labelPosition=center;verticalLabelPosition=bottom;align=center;" vertex="1" parent="FHEGJPX1-U8LTmI2p0CC-69">
          <mxGeometry x="390" y="270" width="20" height="20" as="geometry" />
        </mxCell>
        <mxCell id="FHEGJPX1-U8LTmI2p0CC-102" style="edgeStyle=orthogonalEdgeStyle;rounded=0;orthogonalLoop=1;jettySize=auto;html=1;startArrow=none;startFill=0;endArrow=none;endFill=0;fontColor=#000000;" edge="1" parent="FHEGJPX1-U8LTmI2p0CC-69" source="FHEGJPX1-U8LTmI2p0CC-78" target="FHEGJPX1-U8LTmI2p0CC-75">
          <mxGeometry relative="1" as="geometry" />
        </mxCell>
        <mxCell id="FHEGJPX1-U8LTmI2p0CC-103" style="edgeStyle=orthogonalEdgeStyle;rounded=0;orthogonalLoop=1;jettySize=auto;html=1;startArrow=none;startFill=0;endArrow=none;endFill=0;fontColor=#000000;" edge="1" parent="FHEGJPX1-U8LTmI2p0CC-69" source="FHEGJPX1-U8LTmI2p0CC-78" target="FHEGJPX1-U8LTmI2p0CC-79">
          <mxGeometry relative="1" as="geometry" />
        </mxCell>
        <mxCell id="FHEGJPX1-U8LTmI2p0CC-78" value="" style="ellipse;whiteSpace=wrap;html=1;aspect=fixed;fillColor=#000000;verticalAlign=top;labelPosition=center;verticalLabelPosition=bottom;align=center;" vertex="1" parent="FHEGJPX1-U8LTmI2p0CC-69">
          <mxGeometry x="550" y="270" width="20" height="20" as="geometry" />
        </mxCell>
        <mxCell id="FHEGJPX1-U8LTmI2p0CC-104" style="edgeStyle=orthogonalEdgeStyle;rounded=0;orthogonalLoop=1;jettySize=auto;html=1;startArrow=none;startFill=0;endArrow=none;endFill=0;fontColor=#000000;" edge="1" parent="FHEGJPX1-U8LTmI2p0CC-69" source="FHEGJPX1-U8LTmI2p0CC-79" target="FHEGJPX1-U8LTmI2p0CC-64">
          <mxGeometry relative="1" as="geometry" />
        </mxCell>
        <mxCell id="FHEGJPX1-U8LTmI2p0CC-109" style="edgeStyle=orthogonalEdgeStyle;rounded=0;orthogonalLoop=1;jettySize=auto;html=1;startArrow=none;startFill=0;endArrow=none;endFill=0;fontColor=#000000;" edge="1" parent="FHEGJPX1-U8LTmI2p0CC-69" source="FHEGJPX1-U8LTmI2p0CC-79" target="FHEGJPX1-U8LTmI2p0CC-73">
          <mxGeometry relative="1" as="geometry" />
        </mxCell>
        <mxCell id="FHEGJPX1-U8LTmI2p0CC-79" value="" style="ellipse;whiteSpace=wrap;html=1;aspect=fixed;fillColor=#000000;verticalAlign=top;labelPosition=center;verticalLabelPosition=bottom;align=center;" vertex="1" parent="FHEGJPX1-U8LTmI2p0CC-69">
          <mxGeometry x="630" y="270" width="20" height="20" as="geometry" />
        </mxCell>
        <mxCell id="FHEGJPX1-U8LTmI2p0CC-107" style="edgeStyle=orthogonalEdgeStyle;rounded=0;orthogonalLoop=1;jettySize=auto;html=1;startArrow=none;startFill=0;endArrow=none;endFill=0;fontColor=#000000;" edge="1" parent="FHEGJPX1-U8LTmI2p0CC-69" source="FHEGJPX1-U8LTmI2p0CC-80" target="FHEGJPX1-U8LTmI2p0CC-73">
          <mxGeometry relative="1" as="geometry" />
        </mxCell>
        <mxCell id="FHEGJPX1-U8LTmI2p0CC-108" style="edgeStyle=orthogonalEdgeStyle;rounded=0;orthogonalLoop=1;jettySize=auto;html=1;startArrow=none;startFill=0;endArrow=none;endFill=0;fontColor=#000000;" edge="1" parent="FHEGJPX1-U8LTmI2p0CC-69" source="FHEGJPX1-U8LTmI2p0CC-80" target="FHEGJPX1-U8LTmI2p0CC-72">
          <mxGeometry relative="1" as="geometry" />
        </mxCell>
        <mxCell id="FHEGJPX1-U8LTmI2p0CC-110" style="edgeStyle=orthogonalEdgeStyle;rounded=0;orthogonalLoop=1;jettySize=auto;html=1;startArrow=none;startFill=0;endArrow=none;endFill=0;fontColor=#000000;" edge="1" parent="FHEGJPX1-U8LTmI2p0CC-69" source="FHEGJPX1-U8LTmI2p0CC-80" target="FHEGJPX1-U8LTmI2p0CC-81">
          <mxGeometry relative="1" as="geometry" />
        </mxCell>
        <mxCell id="FHEGJPX1-U8LTmI2p0CC-80" value="" style="ellipse;whiteSpace=wrap;html=1;aspect=fixed;fillColor=#000000;verticalAlign=top;labelPosition=center;verticalLabelPosition=bottom;align=center;" vertex="1" parent="FHEGJPX1-U8LTmI2p0CC-69">
          <mxGeometry x="490" y="390" width="20" height="20" as="geometry" />
        </mxCell>
        <mxCell id="FHEGJPX1-U8LTmI2p0CC-111" style="edgeStyle=orthogonalEdgeStyle;rounded=0;orthogonalLoop=1;jettySize=auto;html=1;startArrow=none;startFill=0;endArrow=none;endFill=0;fontColor=#000000;" edge="1" parent="FHEGJPX1-U8LTmI2p0CC-69" source="FHEGJPX1-U8LTmI2p0CC-81" target="FHEGJPX1-U8LTmI2p0CC-82">
          <mxGeometry relative="1" as="geometry" />
        </mxCell>
        <mxCell id="FHEGJPX1-U8LTmI2p0CC-81" value="" style="ellipse;whiteSpace=wrap;html=1;aspect=fixed;fillColor=#000000;verticalAlign=top;labelPosition=center;verticalLabelPosition=bottom;align=center;" vertex="1" parent="FHEGJPX1-U8LTmI2p0CC-69">
          <mxGeometry x="490" y="470" width="20" height="20" as="geometry" />
        </mxCell>
        <mxCell id="FHEGJPX1-U8LTmI2p0CC-112" style="edgeStyle=orthogonalEdgeStyle;rounded=0;orthogonalLoop=1;jettySize=auto;html=1;startArrow=none;startFill=0;endArrow=none;endFill=0;fontColor=#000000;" edge="1" parent="FHEGJPX1-U8LTmI2p0CC-69" source="FHEGJPX1-U8LTmI2p0CC-82" target="FHEGJPX1-U8LTmI2p0CC-83">
          <mxGeometry relative="1" as="geometry" />
        </mxCell>
        <mxCell id="FHEGJPX1-U8LTmI2p0CC-134" style="edgeStyle=orthogonalEdgeStyle;rounded=0;orthogonalLoop=1;jettySize=auto;html=1;startArrow=none;startFill=0;endArrow=none;endFill=0;fontColor=#000000;" edge="1" parent="FHEGJPX1-U8LTmI2p0CC-69" source="FHEGJPX1-U8LTmI2p0CC-82" target="FHEGJPX1-U8LTmI2p0CC-133">
          <mxGeometry relative="1" as="geometry" />
        </mxCell>
        <mxCell id="FHEGJPX1-U8LTmI2p0CC-82" value="" style="ellipse;whiteSpace=wrap;html=1;aspect=fixed;fillColor=#000000;verticalAlign=top;labelPosition=center;verticalLabelPosition=bottom;align=center;" vertex="1" parent="FHEGJPX1-U8LTmI2p0CC-69">
          <mxGeometry x="490" y="550" width="20" height="20" as="geometry" />
        </mxCell>
        <mxCell id="FHEGJPX1-U8LTmI2p0CC-113" style="edgeStyle=orthogonalEdgeStyle;rounded=0;orthogonalLoop=1;jettySize=auto;html=1;startArrow=none;startFill=0;endArrow=none;endFill=0;fontColor=#000000;" edge="1" parent="FHEGJPX1-U8LTmI2p0CC-69" source="FHEGJPX1-U8LTmI2p0CC-83" target="FHEGJPX1-U8LTmI2p0CC-84">
          <mxGeometry relative="1" as="geometry" />
        </mxCell>
        <mxCell id="FHEGJPX1-U8LTmI2p0CC-114" style="edgeStyle=orthogonalEdgeStyle;rounded=0;orthogonalLoop=1;jettySize=auto;html=1;startArrow=none;startFill=0;endArrow=none;endFill=0;fontColor=#000000;" edge="1" parent="FHEGJPX1-U8LTmI2p0CC-69" source="FHEGJPX1-U8LTmI2p0CC-83" target="FHEGJPX1-U8LTmI2p0CC-88">
          <mxGeometry relative="1" as="geometry" />
        </mxCell>
        <mxCell id="FHEGJPX1-U8LTmI2p0CC-83" value="" style="ellipse;whiteSpace=wrap;html=1;aspect=fixed;fillColor=#000000;verticalAlign=top;labelPosition=center;verticalLabelPosition=bottom;align=center;" vertex="1" parent="FHEGJPX1-U8LTmI2p0CC-69">
          <mxGeometry x="570" y="550" width="20" height="20" as="geometry" />
        </mxCell>
        <mxCell id="FHEGJPX1-U8LTmI2p0CC-116" style="edgeStyle=orthogonalEdgeStyle;rounded=0;orthogonalLoop=1;jettySize=auto;html=1;startArrow=none;startFill=0;endArrow=none;endFill=0;fontColor=#000000;" edge="1" parent="FHEGJPX1-U8LTmI2p0CC-69" source="FHEGJPX1-U8LTmI2p0CC-84" target="FHEGJPX1-U8LTmI2p0CC-85">
          <mxGeometry relative="1" as="geometry">
            <Array as="points">
              <mxPoint x="580" y="460" />
              <mxPoint x="700" y="460" />
            </Array>
          </mxGeometry>
        </mxCell>
        <mxCell id="FHEGJPX1-U8LTmI2p0CC-130" style="edgeStyle=orthogonalEdgeStyle;rounded=0;orthogonalLoop=1;jettySize=auto;html=1;startArrow=none;startFill=0;endArrow=none;endFill=0;fontColor=#000000;" edge="1" parent="FHEGJPX1-U8LTmI2p0CC-69" source="FHEGJPX1-U8LTmI2p0CC-84" target="FHEGJPX1-U8LTmI2p0CC-122">
          <mxGeometry relative="1" as="geometry" />
        </mxCell>
        <mxCell id="FHEGJPX1-U8LTmI2p0CC-84" value="" style="ellipse;whiteSpace=wrap;html=1;aspect=fixed;fillColor=#000000;verticalAlign=top;labelPosition=center;verticalLabelPosition=bottom;align=center;" vertex="1" parent="FHEGJPX1-U8LTmI2p0CC-69">
          <mxGeometry x="570" y="510" width="20" height="20" as="geometry" />
        </mxCell>
        <mxCell id="FHEGJPX1-U8LTmI2p0CC-117" style="edgeStyle=orthogonalEdgeStyle;rounded=0;orthogonalLoop=1;jettySize=auto;html=1;startArrow=none;startFill=0;endArrow=none;endFill=0;fontColor=#000000;" edge="1" parent="FHEGJPX1-U8LTmI2p0CC-69" source="FHEGJPX1-U8LTmI2p0CC-85" target="FHEGJPX1-U8LTmI2p0CC-87">
          <mxGeometry relative="1" as="geometry" />
        </mxCell>
        <mxCell id="FHEGJPX1-U8LTmI2p0CC-85" value="" style="ellipse;whiteSpace=wrap;html=1;aspect=fixed;fillColor=#000000;verticalAlign=top;labelPosition=center;verticalLabelPosition=bottom;align=center;" vertex="1" parent="FHEGJPX1-U8LTmI2p0CC-69">
          <mxGeometry x="690" y="510" width="20" height="20" as="geometry" />
        </mxCell>
        <mxCell id="FHEGJPX1-U8LTmI2p0CC-86" value="" style="ellipse;whiteSpace=wrap;html=1;aspect=fixed;fillColor=#000000;verticalAlign=top;labelPosition=center;verticalLabelPosition=bottom;align=center;" vertex="1" parent="FHEGJPX1-U8LTmI2p0CC-69">
          <mxGeometry x="690" y="590" width="20" height="20" as="geometry" />
        </mxCell>
        <mxCell id="FHEGJPX1-U8LTmI2p0CC-118" style="edgeStyle=orthogonalEdgeStyle;rounded=0;orthogonalLoop=1;jettySize=auto;html=1;startArrow=none;startFill=0;endArrow=none;endFill=0;fontColor=#000000;" edge="1" parent="FHEGJPX1-U8LTmI2p0CC-69" source="FHEGJPX1-U8LTmI2p0CC-87" target="FHEGJPX1-U8LTmI2p0CC-86">
          <mxGeometry relative="1" as="geometry" />
        </mxCell>
        <mxCell id="FHEGJPX1-U8LTmI2p0CC-119" style="edgeStyle=orthogonalEdgeStyle;rounded=0;orthogonalLoop=1;jettySize=auto;html=1;startArrow=none;startFill=0;endArrow=none;endFill=0;fontColor=#000000;" edge="1" parent="FHEGJPX1-U8LTmI2p0CC-69" source="FHEGJPX1-U8LTmI2p0CC-87" target="FHEGJPX1-U8LTmI2p0CC-89">
          <mxGeometry relative="1" as="geometry" />
        </mxCell>
        <mxCell id="FHEGJPX1-U8LTmI2p0CC-87" value="" style="ellipse;whiteSpace=wrap;html=1;aspect=fixed;fillColor=#000000;verticalAlign=top;labelPosition=center;verticalLabelPosition=bottom;align=center;" vertex="1" parent="FHEGJPX1-U8LTmI2p0CC-69">
          <mxGeometry x="690" y="550" width="20" height="20" as="geometry" />
        </mxCell>
        <mxCell id="FHEGJPX1-U8LTmI2p0CC-115" style="edgeStyle=orthogonalEdgeStyle;rounded=0;orthogonalLoop=1;jettySize=auto;html=1;startArrow=none;startFill=0;endArrow=none;endFill=0;fontColor=#000000;" edge="1" parent="FHEGJPX1-U8LTmI2p0CC-69" source="FHEGJPX1-U8LTmI2p0CC-88" target="FHEGJPX1-U8LTmI2p0CC-86">
          <mxGeometry relative="1" as="geometry">
            <Array as="points">
              <mxPoint x="580" y="660" />
              <mxPoint x="700" y="660" />
            </Array>
          </mxGeometry>
        </mxCell>
        <mxCell id="FHEGJPX1-U8LTmI2p0CC-128" style="edgeStyle=orthogonalEdgeStyle;rounded=0;orthogonalLoop=1;jettySize=auto;html=1;startArrow=none;startFill=0;endArrow=none;endFill=0;fontColor=#000000;" edge="1" parent="FHEGJPX1-U8LTmI2p0CC-69" source="FHEGJPX1-U8LTmI2p0CC-88" target="FHEGJPX1-U8LTmI2p0CC-124">
          <mxGeometry relative="1" as="geometry" />
        </mxCell>
        <mxCell id="FHEGJPX1-U8LTmI2p0CC-88" value="" style="ellipse;whiteSpace=wrap;html=1;aspect=fixed;fillColor=#000000;verticalAlign=top;labelPosition=center;verticalLabelPosition=bottom;align=center;" vertex="1" parent="FHEGJPX1-U8LTmI2p0CC-69">
          <mxGeometry x="570" y="590" width="20" height="20" as="geometry" />
        </mxCell>
        <mxCell id="FHEGJPX1-U8LTmI2p0CC-89" value="" style="ellipse;whiteSpace=wrap;html=1;aspect=fixed;fillColor=#000000;verticalAlign=top;labelPosition=center;verticalLabelPosition=bottom;align=center;" vertex="1" parent="FHEGJPX1-U8LTmI2p0CC-69">
          <mxGeometry x="750" y="550" width="20" height="20" as="geometry" />
        </mxCell>
        <mxCell id="FHEGJPX1-U8LTmI2p0CC-120" value="" style="ellipse;whiteSpace=wrap;html=1;aspect=fixed;fillColor=#000000;verticalAlign=top;labelPosition=center;verticalLabelPosition=bottom;align=center;" vertex="1" parent="FHEGJPX1-U8LTmI2p0CC-69">
          <mxGeometry x="310" y="210" width="20" height="20" as="geometry" />
        </mxCell>
        <mxCell id="FHEGJPX1-U8LTmI2p0CC-122" value="" style="ellipse;whiteSpace=wrap;html=1;aspect=fixed;fillColor=#000000;verticalAlign=top;labelPosition=center;verticalLabelPosition=bottom;align=center;" vertex="1" parent="FHEGJPX1-U8LTmI2p0CC-69">
          <mxGeometry x="610" y="510" width="20" height="20" as="geometry" />
        </mxCell>
        <mxCell id="FHEGJPX1-U8LTmI2p0CC-126" style="edgeStyle=orthogonalEdgeStyle;rounded=0;orthogonalLoop=1;jettySize=auto;html=1;startArrow=none;startFill=0;endArrow=none;endFill=0;fontColor=#000000;" edge="1" parent="FHEGJPX1-U8LTmI2p0CC-69" source="FHEGJPX1-U8LTmI2p0CC-123" target="FHEGJPX1-U8LTmI2p0CC-85">
          <mxGeometry relative="1" as="geometry" />
        </mxCell>
        <mxCell id="FHEGJPX1-U8LTmI2p0CC-123" value="" style="ellipse;whiteSpace=wrap;html=1;aspect=fixed;fillColor=#000000;verticalAlign=top;labelPosition=center;verticalLabelPosition=bottom;align=center;" vertex="1" parent="FHEGJPX1-U8LTmI2p0CC-69">
          <mxGeometry x="650" y="510" width="20" height="20" as="geometry" />
        </mxCell>
        <mxCell id="FHEGJPX1-U8LTmI2p0CC-124" value="" style="ellipse;whiteSpace=wrap;html=1;aspect=fixed;fillColor=#000000;verticalAlign=top;labelPosition=center;verticalLabelPosition=bottom;align=center;" vertex="1" parent="FHEGJPX1-U8LTmI2p0CC-69">
          <mxGeometry x="610" y="590" width="20" height="20" as="geometry" />
        </mxCell>
        <mxCell id="FHEGJPX1-U8LTmI2p0CC-127" style="edgeStyle=orthogonalEdgeStyle;rounded=0;orthogonalLoop=1;jettySize=auto;html=1;startArrow=none;startFill=0;endArrow=none;endFill=0;fontColor=#000000;" edge="1" parent="FHEGJPX1-U8LTmI2p0CC-69" source="FHEGJPX1-U8LTmI2p0CC-125" target="FHEGJPX1-U8LTmI2p0CC-86">
          <mxGeometry relative="1" as="geometry" />
        </mxCell>
        <mxCell id="FHEGJPX1-U8LTmI2p0CC-125" value="" style="ellipse;whiteSpace=wrap;html=1;aspect=fixed;fillColor=#000000;verticalAlign=top;labelPosition=center;verticalLabelPosition=bottom;align=center;" vertex="1" parent="FHEGJPX1-U8LTmI2p0CC-69">
          <mxGeometry x="650" y="590" width="20" height="20" as="geometry" />
        </mxCell>
        <mxCell id="FHEGJPX1-U8LTmI2p0CC-132" value="" style="rounded=0;whiteSpace=wrap;html=1;fillColor=none;fontColor=#000000;" vertex="1" parent="FHEGJPX1-U8LTmI2p0CC-69">
          <mxGeometry x="440" y="680" width="120" height="80" as="geometry" />
        </mxCell>
        <mxCell id="FHEGJPX1-U8LTmI2p0CC-133" value="" style="ellipse;whiteSpace=wrap;html=1;aspect=fixed;fillColor=#000000;verticalAlign=top;labelPosition=center;verticalLabelPosition=bottom;align=center;" vertex="1" parent="FHEGJPX1-U8LTmI2p0CC-69">
          <mxGeometry x="490" y="710" width="20" height="20" as="geometry" />
        </mxCell>
        <mxCell id="FHEGJPX1-U8LTmI2p0CC-136" style="edgeStyle=orthogonalEdgeStyle;rounded=0;orthogonalLoop=1;jettySize=auto;html=1;startArrow=none;startFill=0;endArrow=none;endFill=0;fontColor=#000000;" edge="1" parent="FHEGJPX1-U8LTmI2p0CC-69" source="FHEGJPX1-U8LTmI2p0CC-135" target="FHEGJPX1-U8LTmI2p0CC-133">
          <mxGeometry relative="1" as="geometry" />
        </mxCell>
        <mxCell id="FHEGJPX1-U8LTmI2p0CC-135" value="" style="ellipse;whiteSpace=wrap;html=1;aspect=fixed;fillColor=#000000;verticalAlign=top;labelPosition=center;verticalLabelPosition=bottom;align=center;" vertex="1" parent="FHEGJPX1-U8LTmI2p0CC-69">
          <mxGeometry x="490" y="790" width="20" height="20" as="geometry" />
        </mxCell>
      </root>
    </mxGraphModel>
  </diagram>
</mxfile>
